<?xml version="1.0" encoding="utf-8"?>
<!-- Generator: Adobe Illustrator 29.7.1, SVG Export Plug-In . SVG Version: 9.03 Build 0)  -->
<svg version="1.0" id="Layer_1" xmlns="http://www.w3.org/2000/svg" xmlns:xlink="http://www.w3.org/1999/xlink" x="0px" y="0px"
	 viewBox="0 0 3000 3000" style="enable-background:new 0 0 3000 3000;" xml:space="preserve">
<style type="text/css">
	.st0{clip-path:url(#SVGID_00000021097213262355255420000005740585456447162265_);}
	.st1{fill:#44300E;}
</style>
<g transform="matrix(1, 0, 0, 1, 78, 1029)">
	<g>
		<defs>
			<rect id="SVGID_1_" x="30.9" y="338.19" width="2782.21" height="255.1"/>
		</defs>
		<clipPath id="SVGID_00000046325217681796408530000007867802105453006229_">
			<use xlink:href="#SVGID_1_"  style="overflow:visible;"/>
		</clipPath>
		<g style="clip-path:url(#SVGID_00000046325217681796408530000007867802105453006229_);">
			<g>
				<g transform="translate(1.798696, 146.264212)">
					<g>
						<path class="st1" d="M43.34,235.97h6.87c0.51,0.82,0.88,1.41,1.1,1.76c2.06,3.56,3.64,5.89,4.75,7
							c0.97,0.29,6.03,0.44,15.18,0.44c5.69,0,10.74-0.03,15.18-0.1l2.22-0.33l13.39-0.12l25.04,0.23h34.21l6.54-1
							c0.95-0.66,1.98-2.43,3.09-5.31c0.29-0.66,0.7-1.59,1.22-2.78l4.86-0.1c0.75,0,1.86,0.04,3.34,0.1
							c0.07,5.11,0.1,12.79,0.1,23.04l0.1,9.86l-0.1,5.65c0,1.93-0.15,3.59-0.44,4.98c-3.03,0.95-5.7,1.55-7.99,1.76
							c-1.91-2.88-4-7.04-6.25-12.5c-2.26-5.47-3.67-8.5-4.26-9.09c-0.89-0.95-1.93-1.58-3.11-1.89c-1.78-0.36-9.6-0.54-23.48-0.54
							c-2.07,0-4.65,0.15-7.74,0.44c-0.45,2.88-0.66,5.24-0.66,7.08l0.1,14.84v32.57l0.46,35.11l-0.12,14.39
							c0,5.1,0.44,8.94,1.33,11.52c1.19,0.51,3.37,0.99,6.54,1.43c0.59,0.08,3.33,0.68,8.2,1.79c2.21,0.51,4.17,1.1,5.88,1.76
							c0.36,2.66,0.54,4.29,0.54,4.88c0,0.66-0.11,1.62-0.33,2.86c-1.62,0.08-2.95,0.12-3.99,0.12c-7.6,0-14.05-0.28-19.37-0.83
							c-5.31-0.55-14.96-0.83-28.92-0.83c-2.22,0-8.71,0.45-19.49,1.33c-4.21,0.29-6.93,0.44-8.18,0.44
							c-0.08-1.11-0.16-1.96-0.23-2.55l-0.1-2.53v-0.89c1.62-2.14,4.68-3.73,9.18-4.75c7.68-1.85,13-3.51,15.96-4.98
							c0.73-1.41,1.17-3.26,1.33-5.54c0.51-8.85,0.77-22.96,0.77-42.31l-0.56-41.85c0-11.53-0.22-18.51-0.66-20.95
							c-0.14-0.66-0.39-1.16-0.77-1.49c-0.37-0.33-0.89-0.53-1.56-0.6c-2.28-0.29-9.74-0.44-22.36-0.44
							c-6.95,0-11.6,0.66-13.95,1.99c-3.19,1.84-7.95,6.86-14.3,15.05c-1.84,2.37-3.21,3.55-4.09,3.55
							c-3.39-1.77-5.57-3.21-6.54-4.32c2.29-4.8,5.47-14.4,9.53-28.79C41.96,240.3,42.81,237.46,43.34,235.97z"/>
					</g>
				</g>
			</g>
			<g>
				<g transform="translate(119.149206, 146.264212)">
					<g>
						<path class="st1" d="M77.13,385.16c0-2.21,0.22-4.84,0.66-7.87l13.85-2.43c1.7-0.37,3.74-0.97,6.1-1.79l1.43-27.67
							c-0.29-9.98-0.44-17.44-0.44-22.38l0.1-2.66c0.22-3.03,0.33-10.63,0.33-22.82l-0.23-3.22l0.23-9.3l-0.1-9.63v-4.75
							c0-4.29-0.33-9.31-1-15.07c-0.08-0.51-0.38-1.4-0.89-2.66c-0.6-0.22-1.25-0.36-1.95-0.44c-0.7-0.07-1.41-0.18-2.14-0.33
							c-2.88-0.51-5.95-0.88-9.2-1.1l-1.66-0.46c-1.99-0.22-3.51-0.51-4.55-0.87c-0.22-2.14-0.33-3.51-0.33-4.11
							c0-0.88,0.22-2.1,0.66-3.65c1.48-0.29,3.55-0.44,6.21-0.44c2.66,0,4.5-0.03,5.54-0.1c8.99,0.95,15.67,1.47,20.03,1.54
							c1.99,0,4.01,0.06,6.04,0.17c2.03,0.11,3.83,0.17,5.38,0.17c2.43,0,8.37-0.36,17.81-1.1c1.55-0.37,3.25-0.56,5.11-0.56
							c2.72,0,5.01,0.16,6.85,0.46c0.08,1.55,0.12,2.66,0.12,3.32c0,1.18-0.16,2.62-0.46,4.32l-19.47,3.09
							c-1.63,0.74-2.45,1.81-2.45,3.22l0.33,4.09l0.12,1.76l-0.12,4.88l-0.21,3.76v0.89c0.07,0.82,0.1,1.53,0.1,2.12l-0.1,14.05
							c0.07,1.33,0.1,2.33,0.1,2.99c0,0.37-0.08,1.56-0.23,3.55c-0.07,1.18-0.1,2.4-0.1,3.65c0,1.11,0.11,3.73,0.33,7.87
							c2.06,0.36,3.8,0.58,5.21,0.66l16.38,0.33h7.97l19.93,0.1l19.39-0.56c2.5,0,5.16-0.25,7.97-0.77
							c0.15-2.52,0.26-8.68,0.33-18.5l0.23-4.98l-0.66-18.83l-0.79-7.74c-0.22-0.52-0.74-1.01-1.54-1.45
							c-2.59-1.46-7.76-3.12-15.51-4.98c-1.4-0.29-2.73-0.65-3.99-1.1c0.15-2.58,0.45-4.69,0.89-6.31c1.62-0.07,2.62-0.1,2.99-0.1
							l10.73,0.1c6.86,0.89,13.84,1.33,20.93,1.33c1.63,0,2.93-0.03,3.88-0.1l14.39-0.46c1.33-0.07,2.62-0.13,3.88-0.21
							c2.66-0.59,5.39-0.89,8.2-0.89c2.14,0,4.72,0.11,7.74,0.33c-0.07,2.88-0.25,5.5-0.54,7.87c-6.8,1.4-11.25,2.42-13.35,3.05
							c-2.11,0.62-4.23,1.49-6.37,2.6l-0.66,2.2v1.89l0.1,2.89l-0.1,1.43c-0.16,1.55-0.23,2.74-0.23,3.55v2.76
							c0.08,3.32,0.12,5.17,0.12,5.54v14.05l0.1,10.63l-0.23,14.08c-0.07,3.25,0.04,9.9,0.33,19.93v15.74l0.23,13.06
							c0,2.44-0.08,5.39-0.23,8.86c1.55,0.45,2.99,0.81,4.32,1.1c6.94,1.48,12.19,3,15.74,4.55l0.33,7.74
							c-2.95,0.08-4.69,0.12-5.21,0.12c-3.54,0-7.61-0.22-12.19-0.66c-6.05-0.66-15.79-1-29.23-1c-6.05,0-13.88,0.48-23.48,1.43
							c-1.03,0-2.28-0.22-3.76-0.66c0.07-3.39,0.25-5.79,0.56-7.2l8.51-1.99l8.97-1.43c0.88-0.22,2.03-0.55,3.45-1
							c0.8-5.98,1.25-15.91,1.33-29.79l0.1-9.43c-0.45-3.9-0.66-8.58-0.66-14.05c-2.73-0.22-5.68-0.36-8.86-0.44l-51.38-0.56l-1-0.1
							l-0.77-0.12c-0.53,0-1.12,0.04-1.79,0.12c-1.91,0.07-3.53,0.1-4.86,0.1h-3.11c-1.4,0-2.98,0.26-4.75,0.77l-0.44,8.3v1.45
							c0.13,1.99,0.21,3.28,0.21,3.86v34.34c0,1.93,0.11,3.88,0.33,5.88l1.12,0.66l16.28,2.55c0.8,0.29,1.42,0.47,1.87,0.54
							c0.97,0.22,1.79,0.56,2.45,1c0.22,1.7,0.33,2.85,0.33,3.45c0,0.95-0.16,2.28-0.46,3.99c-2.66,0.07-4.91,0.1-6.75,0.1
							c-1.62,0-3.13-0.03-4.55-0.1c-0.66,0-1.29-0.04-1.87-0.12l-15.61-0.66c-3.7-0.36-8.86-0.54-15.51-0.54l-2.33,0.1
							c-3.1,0.16-4.91,0.26-5.44,0.33C94.05,384.86,86.89,385.16,77.13,385.16z"/>
					</g>
				</g>
			</g>
			<g>
				<g transform="translate(266.754151, 146.264212)">
					<g>
						<path class="st1" d="M123.11,242.18c4.2,0.22,7.86,0.56,10.96,1c5.82,0.82,12.58,1.22,20.26,1.22c2.66,0,9.49-0.22,20.49-0.66
							c16.45-0.66,31.33-1,44.63-1l20.03-0.23c4.51,0,11.15,0.56,19.93,1.66c1.33,1.48,1.99,3.48,1.99,5.98v22.82l0.23,4.55
							c0,0.45-0.04,1.11-0.1,1.99l-4.55,0.21c-0.6,0-1.85-0.07-3.76-0.21c-0.66-1.48-1.55-3.66-2.66-6.54l-4.44-7.87
							c-1.69-3.32-4.05-6.72-7.08-10.19c-1.84-0.51-4.2-0.8-7.08-0.87c-0.75-0.08-3.01-0.27-6.77-0.56
							c-6.87-0.59-14.25-0.89-22.15-0.89c-9.01,0-17.06,0.16-24.14,0.46c-0.22,1.84-0.33,9.11-0.33,21.82l0.23,18.6v13.95
							c1.84,0.22,3.43,0.33,4.75,0.33c13.21,0,22.63-0.25,28.23-0.77c5.62-0.52,9.09-1.25,10.42-2.16c1.33-0.92,2.51-2.54,3.55-4.84
							c0.66-1.62,1.95-7.04,3.86-16.28l1.45-0.1l6.41,0.1c0.3,6.58,0.46,11.56,0.46,14.95c0,7.76-0.06,12.76-0.17,14.97
							c-0.11,2.22-0.17,3.94-0.17,5.19c0,1.99,0.11,5.19,0.33,9.59c0.22,4.39,0.33,7.66,0.33,9.8v2.43h-7.87
							c-0.31-1.17-0.86-3.61-1.66-7.31c-1.48-6.86-2.81-11.15-3.99-12.85c-0.89-1.33-2.37-2.33-4.44-2.99
							c-1.47-0.51-6.93-0.77-16.38-0.77c-11.16,0-19.54,0.3-25.14,0.89c-0.07,1.91-0.1,3.17-0.1,3.76c0,8.79,0.15,16.1,0.44,21.92
							l-0.23,23.92c0,2.81,1,4.73,2.99,5.77c3.03,1.55,12.3,2.33,27.8,2.33c10.27,0,18.98-0.77,26.14-2.33
							c4.95-1.11,9.31-3.58,13.08-7.43c5.01-4.94,9.18-11.87,12.5-20.8c2.29-0.22,4.18-0.33,5.67-0.33c0.8,0,2.02,0.04,3.65,0.1
							c-0.22,1.84-0.41,3.39-0.56,4.65l-0.66,3.32l-4.09,20.93l-2.01,12.62c-4.79,0.22-8.59,0.33-11.4,0.33
							c-4.14,0-15.18-0.36-33.11-1.1c-12.62-0.51-27.83-0.77-45.63-0.77c-8.86,0-19.74,0.37-32.66,1.1h-4.65l-13.41,0.44v-7.64
							c1.4-0.36,4.2-0.76,8.41-1.2c7.68-0.88,13-2.07,15.96-3.55c0.8-2.14,1.2-4.84,1.2-8.1c0-1.25-0.04-3.38-0.1-6.41l0.1-3.43
							l-0.33-41.75l0.12-12.52l-0.56-17.73l0.1-12.52l-1-13.72c0-0.37-0.07-1.11-0.21-2.22c-0.75-0.8-1.86-1.31-3.32-1.54
							c-0.82-0.15-1.93-0.37-3.32-0.66c-4.22-0.88-8.28-1.4-12.19-1.56c-1.41-0.07-3.04-0.21-4.88-0.44L123.11,242.18z"/>
					</g>
				</g>
			</g>
			<g>
				<g transform="translate(387.68852, 146.264212)">
				</g>
			</g>
			<g>
				<g transform="translate(430.361433, 146.264212)">
					<g>
						<path class="st1" d="M184.19,235.97h6.87c0.51,0.82,0.88,1.41,1.1,1.76c2.06,3.56,3.64,5.89,4.75,7
							c0.97,0.29,6.03,0.44,15.18,0.44c5.69,0,10.74-0.03,15.18-0.1l2.22-0.33l13.39-0.12l25.04,0.23h34.21l6.54-1
							c0.95-0.66,1.98-2.43,3.09-5.31c0.29-0.66,0.7-1.59,1.22-2.78l4.86-0.1c0.75,0,1.86,0.04,3.34,0.1
							c0.07,5.11,0.1,12.79,0.1,23.04l0.1,9.86l-0.1,5.65c0,1.93-0.15,3.59-0.44,4.98c-3.03,0.95-5.7,1.55-7.99,1.76
							c-1.91-2.88-4-7.04-6.25-12.5c-2.26-5.47-3.67-8.5-4.26-9.09c-0.89-0.95-1.93-1.58-3.11-1.89c-1.78-0.36-9.6-0.54-23.48-0.54
							c-2.07,0-4.65,0.15-7.74,0.44c-0.45,2.88-0.66,5.24-0.66,7.08l0.1,14.84v32.57l0.46,35.11l-0.12,14.39
							c0,5.1,0.44,8.94,1.33,11.52c1.19,0.51,3.37,0.99,6.54,1.43c0.59,0.08,3.33,0.68,8.2,1.79c2.21,0.51,4.17,1.1,5.88,1.76
							c0.36,2.66,0.54,4.29,0.54,4.88c0,0.66-0.11,1.62-0.33,2.86c-1.62,0.08-2.95,0.12-3.99,0.12c-7.6,0-14.05-0.28-19.37-0.83
							c-5.31-0.55-14.96-0.83-28.92-0.83c-2.22,0-8.71,0.45-19.49,1.33c-4.21,0.29-6.93,0.44-8.18,0.44
							c-0.08-1.11-0.16-1.96-0.23-2.55l-0.1-2.53v-0.89c1.62-2.14,4.68-3.73,9.18-4.75c7.68-1.85,13-3.51,15.96-4.98
							c0.73-1.41,1.17-3.26,1.33-5.54c0.51-8.85,0.77-22.96,0.77-42.31l-0.56-41.85c0-11.53-0.22-18.51-0.66-20.95
							c-0.14-0.66-0.39-1.16-0.77-1.49c-0.37-0.33-0.89-0.53-1.56-0.6c-2.28-0.29-9.74-0.44-22.36-0.44
							c-6.95,0-11.6,0.66-13.95,1.99c-3.19,1.84-7.95,6.86-14.3,15.05c-1.84,2.37-3.21,3.55-4.09,3.55
							c-3.39-1.77-5.57-3.21-6.54-4.32c2.29-4.8,5.47-14.4,9.53-28.79C182.81,240.3,183.66,237.46,184.19,235.97z"/>
					</g>
				</g>
			</g>
			<g>
				<g transform="translate(547.711943, 146.264212)">
					<g>
						<path class="st1" d="M220.21,378.72c1.92-1.02,4.76-1.78,8.53-2.26c3.76-0.48,7.16-1.28,10.19-2.39
							c0.36-1.46,0.58-2.53,0.66-3.2c0.13-1.04,0.21-4.59,0.21-10.65l-0.1-24.68l0.44-13.29l-0.21-10.3l0.21-5.98
							c0.22-8.05,0.33-15.59,0.33-22.61c0-15.35-0.18-25.17-0.54-29.46l-6.54-1.33c-5.98-0.36-9.96-0.73-11.96-1.1l-0.23-6.64
							l0.44-1.22c3.7-0.58,7.09-0.87,10.19-0.87c1.7,0,5.13-0.04,10.3-0.12c5.31,0.45,8.19,0.66,8.64,0.66l5.88-0.33l13.85-0.66
							c8.64-0.88,17.76-1.33,27.36-1.33c15.12,0,27.15,3.86,36.08,11.58c8.94,7.71,13.41,16.55,13.41,26.51
							c0,7.46-2.42,14.24-7.27,20.32c-4.83,6.09-12.26,10.69-22.3,13.78c0.88,1.55,2.06,3.36,3.53,5.44
							c3.11,4.43,5.63,8.2,7.54,11.29l17.73,28.67c4.43,7.61,7.32,12.07,8.68,13.37c1.37,1.29,4.2,2.71,8.49,4.26
							c3.32,1.25,5.86,2.5,7.64,3.76c0.44,1.26,0.66,2.37,0.66,3.32c0,0.66-0.04,1.52-0.12,2.55h-2.99l-2.2,0.1l-5.77-0.77h-4.55
							c-2.36-0.37-5.27-0.56-8.74-0.56l-11.07-0.1c-0.82,0-3.4,0.26-7.76,0.77c-1.99,0.22-3.58,0.41-4.75,0.56l-3.78-7.31
							c-3.1-5.53-5.27-9.67-6.52-12.41c-3.25-7.15-8.83-18.56-16.73-34.21c-3.7-7.23-6.28-11.34-7.74-12.29
							c-2.22-1.55-6.02-2.33-11.42-2.33c-1.47,0-3.98,0.07-7.52,0.21c-0.22,2.15-0.33,4.69-0.33,7.64l0.44,24.6l-0.56,20.82
							c2.08,1.25,4.77,2.2,8.1,2.86c5.76,1.19,10.7,2.6,14.84,4.21c0,3.61-0.16,6.35-0.46,8.2c-1.4-0.08-2.28-0.12-2.66-0.12
							l-4.55,0.23c-15.86-1.4-25.28-2.1-28.23-2.1c-1.93,0-3.29,0.04-4.09,0.1l-15.28,1c-4.65,0.51-8.9,0.77-12.75,0.77h-4.75
							c-0.16-1.84-0.23-3.02-0.23-3.53C219.87,381.35,219.98,380.21,220.21,378.72z M270.05,307.08c3.54,0.16,6.12,0.23,7.74,0.23
							c12.55,0,21.45-2.25,26.68-6.75c5.24-4.51,7.87-10.53,7.87-18.06c0-4.65-0.64-9.02-1.93-13.12c-1.29-4.11-2.9-7.16-4.82-9.16
							c-2.73-2.88-6.31-5.05-10.73-6.52c-3.25-1.11-8.46-1.66-15.63-1.66c-3.39,0-6.31,0.18-8.74,0.54l-0.1,2.12l0.1,14.95
							l-0.23,9.07l0.12,12.08c-0.16,3.39-0.26,7.78-0.33,13.16V307.08z"/>
					</g>
				</g>
			</g>
			<g>
				<g transform="translate(666.812706, 146.264212)">
					<g>
						<path class="st1" d="M247.16,385.49l0.23-7.54c1.4-0.44,3.87-1,7.41-1.66c5.69-1.11,9.14-2.1,10.36-2.99
							c1.21-0.88,2.71-3.03,4.48-6.44l22.38-58.56l26.24-68.9c2.43,0.08,4.76,0.12,6.98,0.12h4.98l1,1.99l19.27,45.63
							c4.36,9.66,8.27,19.05,11.75,28.17c3.47,9.12,6.46,16.56,8.97,22.32c1.48,3.48,3.51,8.68,6.08,15.61
							c1.33,3.77,3.36,8.49,6.1,14.18c1.46,3.1,2.57,4.91,3.32,5.44c1.33,1.11,3.49,1.85,6.48,2.22c2.99,0.36,6.22,1.2,9.7,2.53
							c0.36,2.44,0.54,4.25,0.54,5.42c0,0.53-0.04,1.34-0.1,2.45c-5.47,0-11.49-0.25-18.06-0.77c-6.56-0.52-12.47-0.79-17.71-0.79
							c-5.84,0-10.05,0.08-12.62,0.23l-18.83,1l-5.44,0.21c0-2.57,0.11-5.04,0.33-7.41l12.31-2.66c3.68-0.95,5.82-1.69,6.41-2.22
							c0.73-0.73,1.1-1.58,1.1-2.53c0-0.97-0.18-1.97-0.54-3.01l-4.44-10.84l-8.74-21.72l-42.31-0.1
							c-1.55,3.54-4.76,12.22-9.63,26.01c-1.4,3.92-2.1,6.58-2.1,7.97c0,1.93,0.51,3.3,1.54,4.11c1.7,1.4,4.95,2.4,9.76,2.99
							c0.66,0.16,3.29,0.56,7.87,1.22c0.07,2.66,0.1,4.5,0.1,5.52c0,0.82-0.08,1.67-0.23,2.55c-4.58,0-15.51-0.63-32.78-1.89
							l-4.55,0.79c-5.45,0.89-10.66,1.33-15.61,1.33H247.16z M299.23,323.25c17.27,0.22,27.46,0.33,30.56,0.33l2.76-0.12
							c-2.22-6.56-5.1-14.21-8.64-22.96c-3.54-8.76-6.43-15.42-8.64-19.99L299.23,323.25z"/>
					</g>
				</g>
			</g>
			<g>
				<g transform="translate(769.24415, 146.264212)">
					<g>
						<path class="st1" d="M281.16,250.59v-9.51c3.85,0.07,6.17,0.14,6.98,0.21c9.09,1.04,21.01,1.56,35.77,1.56
							c2.21,0,6.72-0.22,13.51-0.66c4.87-0.37,8.52-0.74,10.96-1.1h8.1c0.13,5.39,0.21,8.41,0.21,9.07
							c-7.38,0.95-11.7,1.59-12.95,1.89c-3.24,0.89-5.64,2.07-7.18,3.53c-0.82,0.82-1.22,1.78-1.22,2.89c0,0.82,0.07,1.63,0.23,2.43
							l3.65,9.63c2.57,7.55,6.85,17.77,12.83,30.68l12.62,28.57c2.45,5.55,4.67,10.8,6.66,15.74l6.41-15.74l13.18-36.54l3.09-7.74
							c0.37-1.11,0.85-2.66,1.43-4.65c1.92-6.57,3.53-11.55,4.82-14.95c1.3-3.4,1.95-6.18,1.95-8.32c0-1.4-0.7-2.62-2.1-3.65
							c-2.15-1.62-5.66-2.65-10.53-3.09c-1.04-0.29-2.41-0.52-4.11-0.71c-1.69-0.19-3.2-0.44-4.53-0.73
							c-0.45-1.48-0.66-2.58-0.66-3.32c0-0.97,0.15-2.67,0.44-5.11c1.33,0,5.13,0.3,11.4,0.89c6.28,0.6,12.41,0.89,18.39,0.89
							c6.13,0,11.37-0.28,15.72-0.83c4.36-0.55,7.91-0.87,10.65-0.95v3.55c0,0.89-0.04,2.22-0.12,3.99
							c-9.52,3.48-15.09,5.83-16.71,7.08c-1.04,0.75-2.03,1.97-2.99,3.65c-2.81,4.96-7.09,14.96-12.85,30.02l-14.18,36.66
							c-1.33,3.54-2.79,7.3-4.38,11.25c-1.58,3.94-3.25,8.28-5.02,13c-0.37,1.11-2.11,5.54-5.21,13.29l-1.1,1.99
							c-3.25,10.41-5.69,17.6-7.31,21.59c-2.96,0.15-4.81,0.23-5.54,0.23c-1.41,0-3.37-0.08-5.88-0.23
							c-0.82-2.21-1.63-4.46-2.45-6.75c-0.8-2.28-3.94-10.3-9.4-24.04l-20.93-46.94l-12.52-30.25
							c-6.43-13.73-9.93-21.07-10.53-22.03c-1.25-1.85-2.65-3.18-4.19-3.99c-1.55-0.81-4.76-1.44-9.63-1.89L281.16,250.59z"/>
					</g>
				</g>
			</g>
			<g>
				<g transform="translate(883.010796, 146.264212)">
					<g>
						<path class="st1" d="M325.65,242.18c4.2,0.22,7.86,0.56,10.96,1c5.82,0.82,12.58,1.22,20.26,1.22c2.66,0,9.49-0.22,20.49-0.66
							c16.45-0.66,31.33-1,44.63-1l20.03-0.23c4.51,0,11.15,0.56,19.93,1.66c1.33,1.48,1.99,3.48,1.99,5.98v22.82l0.23,4.55
							c0,0.45-0.04,1.11-0.1,1.99l-4.55,0.21c-0.6,0-1.85-0.07-3.76-0.21c-0.66-1.48-1.55-3.66-2.66-6.54l-4.44-7.87
							c-1.69-3.32-4.05-6.72-7.08-10.19c-1.84-0.51-4.2-0.8-7.08-0.87c-0.75-0.08-3.01-0.27-6.77-0.56
							c-6.87-0.59-14.25-0.89-22.15-0.89c-9.01,0-17.06,0.16-24.14,0.46c-0.22,1.84-0.33,9.11-0.33,21.82l0.23,18.6v13.95
							c1.84,0.22,3.43,0.33,4.75,0.33c13.21,0,22.63-0.25,28.23-0.77c5.62-0.52,9.09-1.25,10.42-2.16c1.33-0.92,2.51-2.54,3.55-4.84
							c0.66-1.62,1.95-7.04,3.86-16.28l1.45-0.1l6.41,0.1c0.3,6.58,0.46,11.56,0.46,14.95c0,7.76-0.06,12.76-0.17,14.97
							c-0.11,2.22-0.17,3.94-0.17,5.19c0,1.99,0.11,5.19,0.33,9.59c0.22,4.39,0.33,7.66,0.33,9.8v2.43h-7.87
							c-0.31-1.17-0.86-3.61-1.66-7.31c-1.48-6.86-2.81-11.15-3.99-12.85c-0.89-1.33-2.37-2.33-4.44-2.99
							c-1.47-0.51-6.93-0.77-16.38-0.77c-11.16,0-19.54,0.3-25.14,0.89c-0.07,1.91-0.1,3.17-0.1,3.76c0,8.79,0.15,16.1,0.44,21.92
							l-0.23,23.92c0,2.81,1,4.73,2.99,5.77c3.03,1.55,12.3,2.33,27.8,2.33c10.27,0,18.98-0.77,26.14-2.33
							c4.95-1.11,9.31-3.58,13.08-7.43c5.01-4.94,9.18-11.87,12.5-20.8c2.29-0.22,4.18-0.33,5.67-0.33c0.8,0,2.02,0.04,3.65,0.1
							c-0.22,1.84-0.41,3.39-0.56,4.65l-0.66,3.32l-4.09,20.93l-2.01,12.62c-4.79,0.22-8.59,0.33-11.4,0.33
							c-4.14,0-15.18-0.36-33.11-1.1c-12.62-0.51-27.83-0.77-45.63-0.77c-8.86,0-19.74,0.37-32.66,1.1h-4.65l-13.41,0.44v-7.64
							c1.4-0.36,4.2-0.76,8.41-1.2c7.68-0.88,13-2.07,15.96-3.55c0.8-2.14,1.2-4.84,1.2-8.1c0-1.25-0.04-3.38-0.1-6.41l0.1-3.43
							l-0.33-41.75l0.12-12.52l-0.56-17.73l0.1-12.52l-1-13.72c0-0.37-0.07-1.11-0.21-2.22c-0.75-0.8-1.86-1.31-3.32-1.54
							c-0.82-0.15-1.93-0.37-3.32-0.66c-4.22-0.88-8.28-1.4-12.19-1.56c-1.41-0.07-3.04-0.21-4.88-0.44L325.65,242.18z"/>
					</g>
				</g>
			</g>
			<g>
				<g transform="translate(1003.945165, 146.264212)">
					<g>
						<path class="st1" d="M365.94,376.4c2.29-0.66,5.53-1.31,9.7-1.93c4.18-0.62,6.63-0.93,7.37-0.93c2.88-0.08,4.8-0.57,5.75-1.45
							c0.44-1.77,0.66-3.24,0.66-4.42l-0.21-14.18l0.66-14.39v-9.2l0.1-10.86l-0.23-11.52l0.46-24.68l0.1-11.19v-1.56
							c-0.51-7.75-1.01-12.01-1.49-12.79c-0.49-0.77-2.61-1.75-6.37-2.93c-0.36-0.15-1.76-0.71-4.19-1.66
							c-1.86-0.75-3.52-1.27-5-1.56c-2.57-0.66-4.38-1.44-5.42-2.33c-0.16-1.92-0.23-3.39-0.23-4.42c0-0.59,0.04-1.48,0.12-2.66
							c0.66-0.37,1.36-0.56,2.1-0.56c1.77,0,8.19,0.3,19.27,0.89l15.84-0.12l11.75,0.23c5.09,0,11.63-0.33,19.6-1
							c2.35-0.22,3.72-0.33,4.09-0.33c1.11,0,1.88,0.3,2.33,0.89c0.59,0.8,0.89,2.28,0.89,4.42c0,1.7-0.41,3-1.22,3.88
							c-0.45,0.51-2.07,0.95-4.88,1.33l-13.72,3.2c-0.37,0.16-1.01,0.45-1.89,0.89c-0.29,0.51-0.51,0.95-0.66,1.33l-0.1,3.09
							l-0.33,6.98v1.99l0.1,1.22c0,0.37-0.11,2.41-0.33,6.1c-0.07,0.95-0.1,1.91-0.1,2.86c0,1.19,0.07,3.19,0.23,5.98
							c0.22,4.43,0.33,8.3,0.33,11.63c0,3.85-0.11,8.24-0.33,13.18c-0.08,1.86-0.12,4.26-0.12,7.2l-0.44,52.48
							c0,2.23,0.36,3.67,1.1,4.34l10.53,0.44l6.54-0.1l6.98,0.21c11.89,0,21.22-1.36,28.01-4.09c5.11-2.08,8.43-4.14,9.99-6.21
							c2.5-2.21,4.55-4.61,6.12-7.18c1.59-2.58,3.38-6.87,5.38-12.85h3.55c1.77,0,3.76,0.15,5.98,0.44v3.09
							c0,5.31-0.66,14.63-1.99,27.92c-0.51,5.31-1.03,8.56-1.56,9.74c-1.69,0.29-2.76,0.44-3.2,0.44h-4.11l-5.75,0.12
							c-0.66,0-5.06-0.3-13.18-0.89c-1.48-0.07-8.53-0.32-21.15-0.77c-12.62-0.44-24.99-0.66-37.1-0.66l-22.59,0.66
							c-8.71,0.22-16.87,0.62-24.48,1.2h-1.66c-0.45,0-1.14-0.03-2.1-0.1c-0.16-0.81-0.23-1.52-0.23-2.1
							C365.17,380.07,365.42,377.81,365.94,376.4z"/>
					</g>
				</g>
			</g>
			<g>
				<g transform="translate(1112.377697, 146.264212)">
					<g>
						<path class="st1" d="M405.56,385.59v-7.97c1.48-0.44,3.92-1.07,7.33-1.89c4.79-1.17,8.37-2.39,10.73-3.65
							c1.33-2.28,1.99-5.46,1.99-9.53l-0.1-13.06l0.21-25.24l-0.1-5.98c0.51-14.63,0.77-22.16,0.77-22.61l-0.21-14.72l0.33-5.98
							l-0.56-12.62l-0.1-4.77c-0.08-0.73-0.35-1.91-0.79-3.53c-3.02-1.41-7.93-2.29-14.72-2.66c-1.63-0.08-2.93-0.19-3.88-0.33
							l-0.33-9.76l31.68,1.33c3.9,0.16,6.34,0.23,7.31,0.23c4.36,0,11.34-0.3,20.93-0.89c5.38-0.36,8.78-0.58,10.19-0.66
							c0.07,1.41,0.1,2.6,0.1,3.55c0,1.26-0.08,2.89-0.23,4.88c-2.95,1.03-6.33,2-10.13,2.93c-3.79,0.93-6.91,1.87-9.34,2.82
							c-0.45,1.93-0.66,4.69-0.66,8.3c0,3.17,0.11,5.75,0.33,7.74c-0.22,12.49-0.33,22.08-0.33,28.79l0.1,29.25l-0.33,14.84
							l0.23,22.13l-0.12,4.21c0,0.6,0.15,1.45,0.46,2.55c4.49,0.95,8.59,1.62,12.29,1.99c0.66,0.07,2.91,0.37,6.75,0.89
							c0.29,2.22,0.44,4.06,0.44,5.52c0,0.82-0.04,2.08-0.1,3.78c-0.95,0-1.7,0.04-2.22,0.1c-2.36,0.16-3.72,0.23-4.09,0.23
							c-0.51,0-1.47-0.11-2.89-0.33c-1.03-0.15-5.93-0.67-14.72-1.56l-19.6-0.23c-3.92,0-9.61,0.37-17.06,1.12
							C410.21,385.27,407.04,385.53,405.56,385.59z"/>
					</g>
				</g>
			</g>
			<g>
				<g transform="translate(1179.970929, 146.264212)">
					<g>
						<path class="st1" d="M419.93,250.92l-0.46-7.74h9.43l3.2-0.1c4.44-0.22,7.5-0.33,9.2-0.33c0.88,0,3.47,0.07,7.76,0.21
							c0.95,0.08,1.76,0.12,2.43,0.12c0.66,0,2.99-0.07,6.98-0.23c3.99-0.15,6.23-0.23,6.75-0.23c0.81,0,1.96,0.04,3.45,0.12
							c11.36,10.33,20.62,19.22,27.78,26.68c7.17,7.46,33.31,33.56,78.43,78.31v-2.78l-0.46-12.85c-0.22-7.53-0.52-13.48-0.89-17.87
							c-0.36-4.39-0.58-9.62-0.66-15.72c-0.07-6.1-0.33-11.63-0.77-16.57c-0.89-9.67-1.33-15.25-1.33-16.73
							c-0.07-4.79-0.58-7.7-1.54-8.74c-1.55-1.62-5.1-2.83-10.65-3.65c-4.06-0.66-7.08-1.52-9.07-2.55l0.1-6.52l2.89-0.33
							l21.82-0.66l24.37-0.66c1.62-0.08,3.17-0.12,4.65-0.12l0.1,7.2c-1.7,0.89-3.44,1.55-5.21,1.99c-4.72,1.11-7.45,1.88-8.2,2.33
							c-3.77,2.15-5.79,3.44-6.08,3.88c-0.66,0.89-1,2.25-1,4.09c0,0.45,0.07,1.99,0.23,4.65c0.07,1.33,0.1,4.43,0.1,9.3
							c0.07,10.71,0.36,19.17,0.89,25.37c0.13,1.99,0.25,4.25,0.33,6.75l1.2,38.88c0.08,2.73,0.12,4.65,0.12,5.75v13.62l0.33,5.77
							l-0.33,5.98c0.29,3.02,0.44,4.83,0.44,5.42v5.88l-12.73,0.44l-13.18-13.62l-26.91-26.7l-18.83-18.83l-13.85-14.16
							c-9.01-8.87-17.21-16.66-24.58-23.38l-18.06-16.28l1,41.19c0.07,2.52,0.1,5.11,0.1,7.76l-0.1,7.85l0.66,14.51
							c0.22,6.06,0.63,12.64,1.22,19.72c0.13,1.93,0.32,3.27,0.54,4.05c0.22,0.78,0.66,1.9,1.33,3.36
							c2.88,1.04,9.16,1.82,18.83,2.33c0.66,0.16,1.62,0.42,2.89,0.79l0.44,8.97l-4.32,0.1c-2.36,0-9.81-0.56-22.36-1.66
							c-11.74,0.16-19.57,0.37-23.48,0.66c-3.92,0.29-6.06,0.44-6.44,0.44c-0.89,0-2.11-0.15-3.65-0.44
							c-0.14-1.7-0.21-3.18-0.21-4.42c0-0.81,0.03-2.14,0.1-3.99c2.06-0.37,3.76-0.56,5.09-0.56c0.44,0,1.88,0.08,4.32,0.23
							c6.21,0,9.89-0.46,11.02-1.39c1.15-0.92,1.8-3.42,1.95-7.47c0.51-11.73,0.77-18.9,0.77-21.49v-6.08l0.23-36l-0.33-22.48
							c-0.08-8.56-0.64-14.51-1.66-17.83c-0.45-1.7-1.3-3.18-2.55-4.42c-2.59-2.66-5.47-4.65-8.64-5.98
							C432.95,253.22,427.97,252.18,419.93,250.92z"/>
					</g>
				</g>
			</g>
			<g>
				<g transform="translate(1323.992008, 146.264212)">
					<g>
						<path class="st1" d="M609.34,251.48c0.51,2.15,1.1,6.37,1.76,12.68s1,10.91,1,13.78c0,1.11-0.26,2.47-0.77,4.09
							c-3.19-0.07-5.89-0.36-8.1-0.87c-5.61-8.65-9.55-14.08-11.83-16.3c-4.29-4.12-9.79-7.62-16.5-10.5
							c-4.96-2.14-10.64-3.22-17.06-3.22c-12.33,0-23.19,5.54-32.57,16.61c-9.37,11.08-14.05,27.54-14.05,49.39
							c0,10.27,1.83,20.24,5.48,29.92c3.66,9.66,9.16,17.25,16.46,22.75c7.31,5.5,15.91,8.24,25.8,8.24c4.79,0,9.88-0.62,15.28-1.87
							c2.72-0.59,4.94-1.78,6.64-3.55c1.17-1.17,1.95-2.95,2.33-5.31c0.59-4.29,0.89-10.38,0.89-18.27c0-7.68-0.11-12.96-0.33-15.84
							c-0.53-1.11-1.03-1.83-1.52-2.16c-0.47-0.33-1.97-0.87-4.48-1.62l-9.84-2.66c-2.15-0.51-3.48-1.13-3.99-1.87
							c-0.16-0.97-0.23-1.67-0.23-2.12c0-1.02,0.25-2.46,0.77-4.32c1.33-0.44,2.25-0.66,2.78-0.66c8.04,0,15.01,0.3,20.93,0.89
							c2.06,0.16,4.31,0.23,6.75,0.23l17.5-0.23l7.43-0.23c0.88-0.07,3.35,0.01,7.41,0.23c0.07,1.93,0.1,3.55,0.1,4.88
							c0,0.8-0.26,1.72-0.77,2.76c-1.26,0.74-3.4,1.66-6.44,2.76c-3.02,1.11-4.71,1.85-5.09,2.22c-0.58,0.6-0.99,1.53-1.2,2.78
							c-0.22,1.25-0.33,5.64-0.33,13.16c0,8.72-0.04,13.92-0.12,15.61c-0.29,5.47-0.44,8.57-0.44,9.32c0,2.73-0.37,4.42-1.1,5.09
							c-2.08,2.07-8.49,4.41-19.22,7.04c-10.74,2.62-23.24,3.92-37.49,3.92c-9.96,0-18.62-0.79-25.97-2.37
							c-7.34-1.59-13.59-3.93-18.77-7.04c-6.93-4.14-12.88-9.16-17.83-15.07c-4.94-5.91-8.63-12.3-11.07-19.16
							c-3.4-9.74-5.11-19.45-5.11-29.13c0-10.85,2.51-21.85,7.54-32.99c3.7-8.05,8.88-15.31,15.55-21.76
							c6.68-6.46,15.04-11.61,25.08-15.45c10.05-3.85,20.98-5.77,32.8-5.77c1.48,0,3.88,0.18,7.2,0.54c8.99,0,17.4,1.13,25.22,3.38
							C597.66,245.71,604.16,248.38,609.34,251.48z"/>
					</g>
				</g>
			</g>
			<g>
				<g transform="translate(1448.426883, 146.264212)">
				</g>
			</g>
			<g>
				<g transform="translate(1491.099795, 146.264212)">
					<g>
						<path class="st1" d="M526.37,249.59l-0.1-8.41l26.47,1.66l11.85-0.1h4.32c4.49,0,11.55-0.26,21.15-0.79
							c5.45-0.36,8.89-0.54,10.3-0.54c9.3,0,16.31,0.51,21.03,1.54c7.23,1.48,12.98,3.85,17.23,7.1c4.25,3.24,7.9,7.87,10.96,13.89
							c3.06,6.02,4.59,11.62,4.59,16.77c0,12.85-4.04,23.27-12.12,31.29c-8.09,8.01-18.29,12.02-30.62,12.02
							c-4.28,0-8.36-0.51-12.23-1.54c-3.88-1.04-7.52-2.6-10.92-4.67c-0.36-2.13-0.54-5.08-0.54-8.84c1.77,0.14,3.37,0.25,4.82,0.33
							c1.44,0.07,2.71,0.1,3.82,0.1c6.27,0,11.55-1.73,15.84-5.21c5.67-4.49,8.51-11.8,8.51-21.92c0-7.23-1.24-13.16-3.72-17.77
							c-2.47-4.62-5.39-7.74-8.78-9.36c-4.73-2.21-10.06-3.32-15.96-3.32c-5.54,0-9.48,0.81-11.83,2.43
							c-0.6,0.97-1.04,1.9-1.33,2.78l0.77,52.15l-0.23,4.44l0.33,4.65c0.08,1.03,0.12,2.53,0.12,4.53v9.09l0.1,14.51l-0.23,17.27
							c0,2.44,0.22,5.72,0.66,9.86l22.05,2.76c0.29,1.77,0.44,3.18,0.44,4.21c0,1.11-0.18,2.66-0.54,4.65
							c-1.86,0.29-3.26,0.44-4.21,0.44c-2.3,0-6.62-0.28-12.98-0.83c-6.34-0.55-13.57-0.83-21.69-0.83
							c-9.15,0-17.86,0.59-26.14,1.76c-1.4,0.22-3.61,0.41-6.64,0.56c-0.29-2.14-0.44-3.73-0.44-4.75c0-0.66,0.07-1.7,0.21-3.11
							l6.77-2.2c4.65-1.41,8.67-3.11,12.06-5.11c0.66-2.14,1-4.1,1-5.88c0-0.73-0.04-1.58-0.1-2.53c-0.07-2.29-0.1-5.51-0.1-9.63
							l-0.33-31.12l-1.22-35.11c-0.51-16.69-0.92-25.7-1.22-27.03c-0.51-2.14-1.4-3.83-2.66-5.04c-1.25-1.21-3.35-2.08-6.31-2.6
							C532.43,251.11,528.37,250.26,526.37,249.59z"/>
					</g>
				</g>
			</g>
			<g>
				<g transform="translate(1596.031741, 146.264212)">
					<g>
						<path class="st1" d="M559.99,242.18c4.2,0.22,7.86,0.56,10.96,1c5.82,0.82,12.58,1.22,20.26,1.22c2.66,0,9.49-0.22,20.49-0.66
							c16.45-0.66,31.33-1,44.63-1l20.03-0.23c4.51,0,11.15,0.56,19.93,1.66c1.33,1.48,1.99,3.48,1.99,5.98v22.82l0.23,4.55
							c0,0.45-0.04,1.11-0.1,1.99l-4.55,0.21c-0.6,0-1.85-0.07-3.76-0.21c-0.66-1.48-1.55-3.66-2.66-6.54l-4.44-7.87
							c-1.69-3.32-4.05-6.72-7.08-10.19c-1.84-0.51-4.2-0.8-7.08-0.87c-0.75-0.08-3.01-0.27-6.77-0.56
							c-6.87-0.59-14.25-0.89-22.15-0.89c-9.01,0-17.06,0.16-24.14,0.46c-0.22,1.84-0.33,9.11-0.33,21.82l0.23,18.6v13.95
							c1.84,0.22,3.43,0.33,4.75,0.33c13.21,0,22.63-0.25,28.23-0.77c5.62-0.52,9.09-1.25,10.42-2.16c1.33-0.92,2.51-2.54,3.55-4.84
							c0.66-1.62,1.95-7.04,3.86-16.28l1.45-0.1l6.41,0.1c0.3,6.58,0.46,11.56,0.46,14.95c0,7.76-0.06,12.76-0.17,14.97
							c-0.11,2.22-0.17,3.94-0.17,5.19c0,1.99,0.11,5.19,0.33,9.59c0.22,4.39,0.33,7.66,0.33,9.8v2.43h-7.87
							c-0.31-1.17-0.86-3.61-1.66-7.31c-1.48-6.86-2.81-11.15-3.99-12.85c-0.89-1.33-2.37-2.33-4.44-2.99
							c-1.47-0.51-6.93-0.77-16.38-0.77c-11.16,0-19.54,0.3-25.14,0.89c-0.07,1.91-0.1,3.17-0.1,3.76c0,8.79,0.15,16.1,0.44,21.92
							l-0.23,23.92c0,2.81,1,4.73,2.99,5.77c3.03,1.55,12.3,2.33,27.8,2.33c10.27,0,18.98-0.77,26.14-2.33
							c4.95-1.11,9.31-3.58,13.08-7.43c5.01-4.94,9.18-11.87,12.5-20.8c2.29-0.22,4.18-0.33,5.67-0.33c0.8,0,2.02,0.04,3.65,0.1
							c-0.22,1.84-0.41,3.39-0.56,4.65l-0.66,3.32l-4.09,20.93l-2.01,12.62c-4.79,0.22-8.59,0.33-11.4,0.33
							c-4.14,0-15.18-0.36-33.11-1.1c-12.62-0.51-27.83-0.77-45.63-0.77c-8.86,0-19.74,0.37-32.66,1.1h-4.65l-13.41,0.44v-7.64
							c1.4-0.36,4.2-0.76,8.41-1.2c7.68-0.88,13-2.07,15.96-3.55c0.8-2.14,1.2-4.84,1.2-8.1c0-1.25-0.04-3.38-0.1-6.41l0.1-3.43
							l-0.33-41.75l0.12-12.52l-0.56-17.73l0.1-12.52l-1-13.72c0-0.37-0.07-1.11-0.21-2.22c-0.75-0.8-1.86-1.31-3.32-1.54
							c-0.82-0.15-1.93-0.37-3.32-0.66c-4.22-0.88-8.28-1.4-12.19-1.56c-1.41-0.07-3.04-0.21-4.88-0.44L559.99,242.18z"/>
					</g>
				</g>
			</g>
			<g>
				<g transform="translate(1716.9662, 146.264212)">
					<g>
						<path class="st1" d="M592.3,385.49l0.23-7.54c1.4-0.44,3.87-1,7.41-1.66c5.69-1.11,9.14-2.1,10.36-2.99
							c1.21-0.88,2.71-3.03,4.48-6.44l22.38-58.56l26.24-68.9c2.43,0.08,4.76,0.12,6.98,0.12h4.98l1,1.99l19.27,45.63
							c4.36,9.66,8.27,19.05,11.75,28.17c3.47,9.12,6.46,16.56,8.97,22.32c1.48,3.48,3.51,8.68,6.08,15.61
							c1.33,3.77,3.36,8.49,6.1,14.18c1.46,3.1,2.57,4.91,3.32,5.44c1.33,1.11,3.49,1.85,6.48,2.22c2.99,0.36,6.22,1.2,9.7,2.53
							c0.36,2.44,0.54,4.25,0.54,5.42c0,0.53-0.04,1.34-0.1,2.45c-5.47,0-11.49-0.25-18.06-0.77c-6.56-0.52-12.47-0.79-17.71-0.79
							c-5.84,0-10.05,0.08-12.62,0.23l-18.83,1l-5.44,0.21c0-2.57,0.11-5.04,0.33-7.41l12.31-2.66c3.68-0.95,5.82-1.69,6.41-2.22
							c0.73-0.73,1.1-1.58,1.1-2.53c0-0.97-0.18-1.97-0.54-3.01l-4.44-10.84l-8.74-21.72l-42.31-0.1
							c-1.55,3.54-4.76,12.22-9.63,26.01c-1.4,3.92-2.1,6.58-2.1,7.97c0,1.93,0.51,3.3,1.54,4.11c1.7,1.4,4.95,2.4,9.76,2.99
							c0.66,0.16,3.29,0.56,7.87,1.22c0.07,2.66,0.1,4.5,0.1,5.52c0,0.82-0.08,1.67-0.23,2.55c-4.58,0-15.51-0.63-32.78-1.89
							l-4.55,0.79c-5.45,0.89-10.66,1.33-15.61,1.33H592.3z M644.37,323.25c17.27,0.22,27.46,0.33,30.56,0.33l2.76-0.12
							c-2.22-6.56-5.1-14.21-8.64-22.96c-3.54-8.76-6.43-15.42-8.64-19.99L644.37,323.25z"/>
					</g>
				</g>
			</g>
			<g>
				<g transform="translate(1828.982596, 146.264212)">
					<g>
						<path class="st1" d="M768.11,244.51c0.95,2.22,2.91,8.53,5.88,18.93c1.33,4.72,2.02,9.75,2.1,15.07h-10.07
							c-7.09-10.05-14.4-17.26-21.94-21.65c-7.53-4.4-15.94-6.6-25.24-6.6c-11.45,0-20.67,4.47-27.67,13.41
							c-9.54,12.11-14.3,28.98-14.3,50.61c0,12.54,0.81,21.48,2.45,26.8c2.66,8.64,6.01,15.68,10.07,21.13
							c3.1,4.14,7.16,7.43,12.19,9.86c6.49,3.32,13.43,4.98,20.82,4.98c8.12,0,15.96-2.52,23.52-7.58
							c7.57-5.07,14.83-12.61,21.78-22.65c2.72-0.51,6.3-0.81,10.73-0.89c-0.29,2.81-0.77,5.73-1.43,8.76
							c-0.22,1.18-1.07,5.86-2.55,14.05l-1,3.32l-1.56,5.21c-4.5,3.48-10.83,6.08-19,7.81c-8.15,1.73-18.18,2.6-30.06,2.6
							c-9.08,0-17.66-0.85-25.74-2.53c-8.09-1.7-15-4.4-20.76-8.1c-8.42-5.31-15.03-11.07-19.83-17.27
							c-4.81-6.2-8.37-12.95-10.69-20.26c-2.33-7.31-3.49-15.5-3.49-24.58c0-22.01,7.25-40.17,21.76-54.5
							c14.52-14.32,33.03-21.49,55.55-21.49c9.14,0,17.76,0.47,25.85,1.39C753.54,241.28,761.09,242.67,768.11,244.51z"/>
					</g>
				</g>
			</g>
			<g>
				<g transform="translate(1944.58277, 146.264212)">
					<g>
						<path class="st1" d="M677.08,385.16c0-2.21,0.22-4.84,0.66-7.87l13.85-2.43c1.7-0.37,3.74-0.97,6.1-1.79l1.43-27.67
							c-0.29-9.98-0.44-17.44-0.44-22.38l0.1-2.66c0.22-3.03,0.33-10.63,0.33-22.82l-0.23-3.22l0.23-9.3l-0.1-9.63v-4.75
							c0-4.29-0.33-9.31-1-15.07c-0.08-0.51-0.38-1.4-0.89-2.66c-0.6-0.22-1.25-0.36-1.95-0.44c-0.7-0.07-1.41-0.18-2.14-0.33
							c-2.88-0.51-5.95-0.88-9.2-1.1l-1.66-0.46c-1.99-0.22-3.51-0.51-4.55-0.87c-0.22-2.14-0.33-3.51-0.33-4.11
							c0-0.88,0.22-2.1,0.66-3.65c1.48-0.29,3.55-0.44,6.21-0.44s4.5-0.03,5.54-0.1c8.99,0.95,15.67,1.47,20.03,1.54
							c1.99,0,4.01,0.06,6.04,0.17c2.03,0.11,3.83,0.17,5.38,0.17c2.43,0,8.37-0.36,17.81-1.1c1.55-0.37,3.25-0.56,5.11-0.56
							c2.72,0,5.01,0.16,6.85,0.46c0.08,1.55,0.12,2.66,0.12,3.32c0,1.18-0.16,2.62-0.46,4.32l-19.47,3.09
							c-1.63,0.74-2.45,1.81-2.45,3.22l0.33,4.09l0.12,1.76l-0.12,4.88l-0.21,3.76v0.89c0.07,0.82,0.1,1.53,0.1,2.12l-0.1,14.05
							c0.07,1.33,0.1,2.33,0.1,2.99c0,0.37-0.08,1.56-0.23,3.55c-0.07,1.18-0.1,2.4-0.1,3.65c0,1.11,0.11,3.73,0.33,7.87
							c2.06,0.36,3.8,0.58,5.21,0.66l16.38,0.33h7.97l19.93,0.1l19.39-0.56c2.5,0,5.16-0.25,7.97-0.77
							c0.15-2.52,0.26-8.68,0.33-18.5l0.23-4.98l-0.66-18.83l-0.79-7.74c-0.22-0.52-0.74-1.01-1.54-1.45
							c-2.59-1.46-7.76-3.12-15.51-4.98c-1.4-0.29-2.73-0.65-3.99-1.1c0.15-2.58,0.45-4.69,0.89-6.31c1.62-0.07,2.62-0.1,2.99-0.1
							l10.73,0.1c6.86,0.89,13.84,1.33,20.93,1.33c1.63,0,2.93-0.03,3.88-0.1l14.39-0.46c1.33-0.07,2.62-0.13,3.88-0.21
							c2.66-0.59,5.39-0.89,8.2-0.89c2.14,0,4.72,0.11,7.74,0.33c-0.07,2.88-0.25,5.5-0.54,7.87c-6.8,1.4-11.25,2.42-13.35,3.05
							c-2.11,0.62-4.23,1.49-6.37,2.6l-0.66,2.2v1.89l0.1,2.89l-0.1,1.43c-0.16,1.55-0.23,2.74-0.23,3.55v2.76
							c0.08,3.32,0.12,5.17,0.12,5.54v14.05l0.1,10.63l-0.23,14.08c-0.07,3.25,0.04,9.9,0.33,19.93v15.74l0.23,13.06
							c0,2.44-0.08,5.39-0.23,8.86c1.55,0.45,2.99,0.81,4.32,1.1c6.94,1.48,12.19,3,15.74,4.55l0.33,7.74
							c-2.95,0.08-4.69,0.12-5.21,0.12c-3.54,0-7.61-0.22-12.19-0.66c-6.05-0.66-15.79-1-29.23-1c-6.05,0-13.88,0.48-23.48,1.43
							c-1.03,0-2.28-0.22-3.76-0.66c0.07-3.39,0.25-5.79,0.56-7.2l8.51-1.99l8.97-1.43c0.88-0.22,2.03-0.55,3.45-1
							c0.8-5.98,1.25-15.91,1.33-29.79l0.1-9.43c-0.45-3.9-0.66-8.58-0.66-14.05c-2.73-0.22-5.68-0.36-8.86-0.44l-51.38-0.56l-1-0.1
							l-0.77-0.12c-0.53,0-1.12,0.04-1.79,0.12c-1.91,0.07-3.53,0.1-4.86,0.1h-3.11c-1.4,0-2.98,0.26-4.75,0.77l-0.44,8.3v1.45
							c0.13,1.99,0.21,3.28,0.21,3.86v34.34c0,1.93,0.11,3.88,0.33,5.88l1.12,0.66l16.28,2.55c0.8,0.29,1.42,0.47,1.87,0.54
							c0.97,0.22,1.79,0.56,2.45,1c0.22,1.7,0.33,2.85,0.33,3.45c0,0.95-0.16,2.28-0.46,3.99c-2.66,0.07-4.91,0.1-6.75,0.1
							c-1.62,0-3.13-0.03-4.55-0.1c-0.66,0-1.29-0.04-1.87-0.12l-15.61-0.66c-3.7-0.36-8.86-0.54-15.51-0.54l-2.33,0.1
							c-3.1,0.16-4.91,0.26-5.44,0.33C694,384.86,686.83,385.16,677.08,385.16z"/>
					</g>
				</g>
			</g>
		</g>
	</g>
</g>
</svg>
